# xmcd
#
# Track frame offsets:
#	150
#	16565
#	34372
#	44605
#	57603
#	71687
#	83145
#	100446
#	106053
#	113525
#	125047
#	139862
#	150525
#	160140
#	174531
#	191626
#	204142
#	215396
#	227619
#	241124
#	252246
#	265381
#	275265
#	283810
#	295032
#	309758
#
# Disc length: 4302 seconds
#
# Revision: 1
# Processed by: cddbd v1.5.2PL0 Copyright (c) Steve Scherf et al.
# Submitted via: audiograbber 1.83.01
#
DISCID=6e10cc1a
DTITLE=Dresden Soul Symphony - Dresden Soul Symphony
DYEAR=2008
DGENRE=Soul
TTITLE0=Prelude
TTITLE1=Midnight Train To Georgia
TTITLE2=I Thank You
TTITLE3=Take Me To The River
TTITLE4=(You Make Me Feel Like) A Natural Woman
TTITLE5=I Got A Woman
TTITLE6=Lovin You
TTITLE7=Midnight Train To Georgia (Reprise)
TTITLE8=I'm Coming Out
TTITLE9=A Song For You
TTITLE10=You're All I Need To Get By
TTITLE11=Let's Stay Together
TTITLE12=It's A Man's Man's World
TTITLE13=Me And Mrs. Jones
TTITLE14=Betcha By Golly Wow
TTITLE15=I'll Take You There
TTITLE16=ABC
TTITLE17=Sir Duke
TTITLE18=Everything Is Everything
TTITLE19=Prelude Reprise
TTITLE20=Master Blaster
TTITLE21=Love's Theme
TTITLE22=T.S.O.P.
TTITLE23=Love Train
TTITLE24=Ain't No Stoppin' Us Now
TTITLE25=Midnight Train To Georgia (Finale)
EXTD=MDR Symphony Orchestra\nfeat. Joy Denalane, Bilal, Dwele and Tweet
EXTT0=
EXTT1=
EXTT2=
EXTT3=
EXTT4=
EXTT5=
EXTT6=
EXTT7=
EXTT8=
EXTT9=
EXTT10=
EXTT11=
EXTT12=
EXTT13=
EXTT14=
EXTT15=
EXTT16=
EXTT17=
EXTT18=
EXTT19=
EXTT20=
EXTT21=
EXTT22=
EXTT23=
EXTT24=
EXTT25=
PLAYORDER=
